PathFileType	4	(X/Y/Z)	T00_JumpTrial_0-2667.trc
DataRate	CameraRate	NumFrames	NumMarkers	Units	OrigDataRate	OrigDataStartFrame	OrigNumFrames
30	30	7	21	m	30	2333	2667
Frame#	Time	RHip			RKnee			RAnkle			RBigToe			RSmallToe			RHeel			LHip			LKnee			LAnkle			LBigToe			LSmallToe			LHeel			Neck			Head			Nose			RShoulder			RElbow			RWrist			LShoulder			LElbow			LWrist		
		X1	Y1	Z1	X2	Y2	Z2	X3	Y3	Z3	X4	Y4	Z4	X5	Y5	Z5	X6	Y6	Z6	X7	Y7	Z7	X8	Y8	Z8	X9	Y9	Z9	X10	Y10	Z10	X11	Y11	Z11	X12	Y12	Z12	X13	Y13	Z13	X14	Y14	Z14	X15	Y15	Z15	X16	Y16	Z16	X17	Y17	Z17	X18	Y18	Z18	X19	Y19	Z19	X20	Y20	Z20	X21	Y21	Z21
2334	77.8	-1.3213918643709803	0.03351694912187002	0.5257514642958513	-0.09139359649004268	0.6266546389750325	0.588121886438353	-0.9301491546416231	-1.274189118292597	0.8955332347393332	0.17344160721362278	0.14124560954783066	-0.5609925892664126	0.20727987816851068	0.061910598865161426	-0.572328743220865	0.25680337790032215	0.04512455432540877	-0.40569755756329384	0.2484960219465392	-0.008717107436319264	-0.3994179978229071	0.01452149136525402	0.020201444658656607	0.5965261785393773	-0.9412411795421909	-1.3132650162971424	0.7893678851438781	-0.14740790728293574	0.8623112108332147	0.5884474281306207	-0.07209646461406764	0.7675905508088084	0.6821544594254141	-0.03365976220628172	0.6185007145159802	0.5742874348487674	-0.8022426341163335	-1.4224994432131182	0.7559900179832586	-0.770509344438342	-1.2524269127886214	0.9864040072144892	-1.1074713800664844	-1.2458238978173948	0.8246984324847612	-0.40788435566589426	-0.7464708967968287	1.2250986436359919	-0.015991479661596537	-0.5743192588118269	0.4853560769015564	-0.07050828516977814	-0.18121370958049857	-0.09996796963884615	-0.5675051757652568	-0.9813158826991613	0.9986785240390422	-0.29489438545748986	-0.5935136671891569	1.4964658868074825	-0.7804597909555033	-0.35925044304237513	0.23105962270407657
2335	77.83333333333333	-1.3039687662899118	0.024564581310305582	0.5262841788182266	-0.15554418038333231	0.6623569760903538	0.5757971898873131	-0.8630417025748415	-1.2934005016349024	0.889529377455095	0.16391361594585052	0.1733315663542357	-0.5424413613099442	0.1836305140071636	0.09650054303255932	-0.5464270334134579	0.2977175850181449	0.04171342938415091	-0.3643081957675877	0.30061401144120503	-0.00246775482129889	-0.349807984456274	0.18513274341598193	-0.07801481683758253	0.6147745884347217	-0.8483090548250323	-1.3288220523582155	0.7861888434664889	-0.1487761782255526	0.86315503190783	0.588429025645379	-0.12998617652413497	0.8001942281216678	0.6709472962426766	-0.03275763937055599	0.6212287580752497	0.5742590253412807	-0.7616451508660276	-1.4397743148614357	0.7524245808714294	-0.6911264071251542	-1.2730441931167666	0.9809408588216448	-1.2142388424272494	-1.2288067275559906	0.8126832895107751	-0.3388099791696304	-0.7830329803221835	1.2161967306263692	-0.014828082660113972	-0.5756601881647514	0.48586072822630216	-0.15003906279010734	-0.14832417022826466	-0.09988123305900488	-0.5683135636334408	-0.9809003947795877	0.9982383816603999	-0.28961553164505177	-0.600694544763402	1.4964847176121272	-0.7725556978210258	-0.36245223299763	0.23209363579966844
2336	77.86666666666666	-0.9157087754365075	-0.1389528347913255	0.558223766856987	-0.150207518466322	0.6660275988760398	0.5761584241035593	-0.9264016871400153	-1.2810838416497004	0.8824923100358039	0.09221122006607221	0.25401082934056834	-0.5152474421008412	0.1575241943728105	0.1563375024362026	-0.5428046816976572	0.18633434687553835	0.1257337698679812	-0.362918437560403	0.1557640553720505	0.10017243671628091	-0.36847564048574544	0.17679572346187053	-0.07317678065322576	0.6137838523218778	-0.9430359575847355	-1.3141096771985963	0.7759703412514974	-0.15088917246149564	0.8635959519069875	0.5882148101112787	-0.1307631510493364	0.8009097045516527	0.6709111272576507	-0.03566155441983241	0.6162923082488528	0.5739088457763024	-1.0203904851113204	-1.3658402546639528	0.6966690064343214	-0.6904753956907161	-1.2737651593716712	0.9805395045999558	-1.2420810100220994	-1.211041824746	0.7990283746950607	-0.4115933818160133	-0.7762562340550601	1.2142155480555574	0.11091047104078354	-0.6209053952463304	0.5051188396663504	-0.16512165489276348	-0.13156760404674664	-0.06611799863601274	-0.5682821826536387	-0.981848670906993	0.9978267748489692	-0.20028891642388733	-0.6380933992477452	1.4811725296999512	-0.5598297684208126	-0.42885349934122363	0.27123899618493824
2337	77.9	-0.9003093123523019	-0.14897089891938933	0.5586674024312295	-0.1506448972025342	0.6667253472983414	0.5761100855780964	-0.9299890784266693	-1.299667134618344	0.8689297124955278	0.17745303370597193	0.243079020082211	-0.46437700309550833	0.28744774462090933	0.12977907754616333	-0.46186389790160215	0.1970938746879739	0.17603152297976402	-0.3431772817229899	0.17559060373311294	0.1253400834863527	-0.34099232638917615	-0.11812628393008641	0.0747240402581985	0.5825727708786579	-0.8464924990322747	-1.343077489463505	0.7735092240612879	-0.14375078897716811	0.8493664955722051	0.5888240061875687	-0.13118169141978908	0.8003371446046467	0.6708166255620786	-0.03585306634936375	0.6176753108995702	0.5738589387768247	-1.2196483031189138	-1.3609742551919797	0.6336461377616487	-0.6719796848771629	-1.2917828973268988	0.9693573711370951	-1.0336181143014709	-1.2456631324709972	0.793258978037829	-0.4689350117694423	-0.7574338348342693	1.2098865561343297	-0.023449036117312895	-0.5636022536481098	0.4892334151167297	-0.02020136991611382	-0.1965180997010788	-0.011326747377911268	-0.6576489360554184	-0.9730522740554262	0.9908559772682479	-0.397966647477391	-0.5813796754538226	1.4990545295383346	-0.7854574662113726	-0.34584350076382436	0.22940220304150966
2338	77.93333333333334	-0.9058213597622354	-0.1471884791789767	0.5582080298294082	-0.15429724434989794	0.6773923101761716	0.5759582558007141	-0.9346906585200768	-1.3029894134976958	0.855656265044773	0.12491625228882058	0.324066961356756	-0.4427879882796054	0.16554924019341247	0.22573730438016956	-0.46548202047321535	0.29473378815655066	0.15371239583154447	-0.2684031892808348	0.25017126928587635	0.13082155078857036	-0.27408011261139176	0.002622221296463954	0.02729599547354181	0.5953687281973489	-0.9214037635082514	-1.3495708490665288	0.7638864009918472	-0.1518913009387933	0.8621562602826928	0.5879393860826521	-0.1350088673497816	0.8099827757700436	0.6706132920295191	-0.033008305749283595	0.6210240248249801	0.5742542129872478	-0.8113219555822492	-1.4638940200343713	0.6933349331795158	-0.8764643166431275	-1.2567384427283526	0.939661725903685	-0.929757037389042	-1.266865543430321	0.7780030244288538	-0.4784525344596186	-0.7581943420187204	1.1965062668175932	-0.15100762191442257	-0.5146226650605326	0.4799070699297828	0.0290760229726522	-0.1627897820132904	0.002192189057128182	-0.6409000821345388	-0.988782606695516	0.9792114365080834	-0.31332227269280166	-0.6156940738420362	1.4723387784462683	-0.8075581361580929	-0.3271907523689981	0.22507958234043707
2339	77.96666666666667	-0.9152896431836289	-0.1417034991949626	0.5577693417430887	-0.15621717843439	0.6636894306577312	0.5758117292010981	-1.2123933177444894	-1.259142396872377	0.8260897857463879	0.15130860646871241	0.32829331953879287	-0.3918599105597303	0.3274295443783987	0.1595786110601132	-0.37607032750838776	0.19788851266927	0.22837601488918485	-0.25086132641211484	0.16722252888184314	0.18994591137414332	-0.255992011549953	-0.07459504436916767	0.06020414710252327	0.5873865355038335	-1.1501632047463322	-1.3181160562631289	0.7243088718343179	-0.1516359498517232	0.8611500660227275	0.5879056629553769	-0.13143241426767857	0.8006051916968185	0.6708942846010069	-0.03366036736188377	0.6215144127850609	0.5741236141517649	0.3571785186001004	-1.6316985277315077	0.9284445532833672	-0.8005628083872793	-1.2613404632046123	0.9081969105174901	-0.9385016580261045	-1.2807324619846614	0.7635017315372093	-0.3045509452569268	-0.821489768740083	1.1779001688439474	-0.14966642690566917	-0.5153359819646363	0.48014790021612286	-0.020413480595425238	-0.11378592518835955	0.006479469103914089	-0.6034548734207218	-1.0064738444386563	0.9708456894114633	-0.1260303565453084	-0.6964550529706222	1.4465406455312624	-0.9893978206299754	-0.25273124647336037	0.1958504237147481
2340	78.0	0.9490022437718831	-1.0188312696703734	0.9353389677898389	1.378616173768213	-0.5091768598639811	0.9080002015174347	0.8273632189235387	-1.681104928758305	1.136004569187548	1.705453989863978	-0.700838985421894	0.4099849662309584	1.678278320970761	-0.7046552248864214	0.383602222861193	1.681563059822488	-0.7263148537153504	0.4656565305797931	1.614662097483355	-0.7315937941922084	0.4462989450515703	1.1417313563394653	-0.7350388477929427	0.897015366125862	0.8385093656074076	-1.700540807069304	1.07070740511969	1.524294986854876	-0.4757443869472079	0.9487208792648687	1.5449589408772428	-0.5060333752582873	0.9979517097100273	1.4853946950896122	-0.5380512534521209	0.8963127933139461	0.8289549511474633	-1.6849129114777281	1.0183585052312172	0.8277757478004492	-1.6446386344164934	1.1609078296732063	0.8480007080223614	-1.651116755948734	1.0884339714642726	0.6402868488746323	-1.2403815003054124	1.314043433590563	1.0965989714480682	-1.0998472269048856	0.8510554918916027	1.3731239588142765	-0.9050301938365791	0.5880479129027845	0.7605116214408264	-1.4373039124131395	1.173666284387939	0.5793573166453554	-1.0906570897661534	1.5021901537539573	1.0241531733584575	-1.1097781277962395	0.745844111387618
